<?xml version="1.0" encoding="UTF-8"?>
<svg xmlns="http://www.w3.org/2000/svg" xmlns:xlink="http://www.w3.org/1999/xlink" width="977.821pt" height="977.821pt" viewBox="0 0 977.821 977.821" version="1.1">
<defs>
<clipPath id="clip1">
  <path d="M 0 0 L 977.820312 0 L 977.820312 977.820312 L 0 977.820312 Z M 0 0 "/>
</clipPath>
</defs>
<g id="surface1">
<g clip-path="url(#clip1)" clip-rule="nonzero">
<path style=" stroke:none;fill-rule:nonzero;fill:rgb(87.098694%,0%,16.899109%);fill-opacity:1;" d="M 488.90625 0 C 218.890625 0 0 218.894531 0 488.914062 C 0 758.925781 218.890625 977.820312 488.90625 977.820312 C 758.925781 977.820312 977.820312 758.925781 977.820312 488.914062 C 977.820312 218.894531 758.925781 0 488.90625 0 "/>
</g>
<path style=" stroke:none;fill-rule:evenodd;fill:rgb(3.898621%,7.499695%,12.5%);fill-opacity:1;" d="M 775.976562 354.910156 C 701.878906 354.910156 641.808594 414.980469 641.808594 489.078125 C 641.808594 563.175781 701.878906 623.246094 775.976562 623.246094 C 843.105469 623.167969 899.84375 573.480469 908.785156 506.964844 L 832.214844 506.964844 C 824.632812 530.8125 802.328125 548.085938 775.976562 548.085938 C 743.386719 548.085938 716.976562 521.667969 716.976562 489.089844 C 716.976562 456.492188 743.394531 430.089844 775.976562 430.078125 C 802.328125 430.078125 824.644531 447.355469 832.214844 471.199219 L 908.796875 471.199219 C 899.84375 404.664062 843.105469 354.988281 775.976562 354.910156 M 201.214844 548.078125 C 168.625 548.078125 142.214844 521.65625 142.214844 489.066406 C 142.214844 456.476562 168.636719 430.066406 201.214844 430.066406 C 233.804688 430.066406 260.214844 456.488281 260.214844 489.066406 C 260.214844 521.667969 233.792969 548.078125 201.214844 548.078125 M 335.382812 620.976562 L 335.382812 489.078125 C 335.382812 414.980469 275.3125 354.910156 201.214844 354.910156 C 127.117188 354.910156 67.046875 414.980469 67.046875 489.078125 C 67.046875 563.175781 127.117188 623.246094 201.214844 623.246094 C 223.078125 623.210938 245.742188 613.925781 261.714844 598.480469 L 261.714844 620.976562 Z M 488.300781 430.078125 C 520.890625 430.078125 547.300781 456.492188 547.300781 489.089844 C 547.300781 521.679688 520.878906 548.085938 488.300781 548.085938 C 455.710938 548.085938 429.300781 521.667969 429.300781 489.089844 C 429.300781 456.488281 455.710938 430.078125 488.300781 430.078125 M 354.132812 288.878906 L 354.132812 489.078125 C 354.132812 563.175781 414.203125 623.246094 488.300781 623.246094 C 562.40625 623.246094 622.46875 563.175781 622.46875 489.078125 C 622.46875 414.980469 562.40625 354.910156 488.300781 354.910156 C 467.84375 354.941406 446.664062 361.453125 429.300781 373.214844 L 429.300781 288.878906 Z M 354.132812 288.878906 "/>
</g>
</svg>
